<svg width="21" height="20" viewBox="0 0 21 20" fill="none" xmlns="http://www.w3.org/2000/svg">
<path d="M20.3148 8.24289C20.3148 3.69788 15.7584 0 10.1574 0C4.55713 0 0 3.69788 0 8.24289C0 12.3177 3.61371 15.73 8.49469 16.3754C8.82553 16.4465 9.27585 16.5935 9.38977 16.8762C9.49203 17.1328 9.4567 17.5352 9.42255 17.7947C9.42255 17.7947 9.30328 18.5112 9.27747 18.6642C9.23331 18.9209 9.07333 19.6685 10.1574 19.2117C11.2415 18.7549 16.0069 15.7672 18.1381 13.3145C19.6102 11.7002 20.3148 10.0619 20.3148 8.24289Z" fill="white"/>
<path d="M8.09375 6.04669H7.38116C7.27191 6.04669 7.18335 6.13504 7.18335 6.24408V10.6701C7.18335 10.7791 7.27191 10.8674 7.38116 10.8674H8.09375C8.20279 10.8674 8.2916 10.7791 8.2916 10.6701V6.24408C8.2916 6.13504 8.20279 6.04669 8.09375 6.04669Z" fill="#00B900"/>
<path d="M12.9977 6.04669H12.2852C12.1759 6.04669 12.0873 6.13504 12.0873 6.24408V8.87344L10.0591 6.13458C10.0545 6.12738 10.0491 6.12085 10.0438 6.11435L10.0424 6.11319C10.0387 6.10876 10.0345 6.1048 10.0305 6.10086L10.0268 6.0976C10.0236 6.09457 10.0201 6.09155 10.0164 6.08878L10.0113 6.08484C10.0078 6.08224 10.0045 6.07993 10.001 6.07761L9.99496 6.07413C9.99149 6.07202 9.98801 6.06995 9.98453 6.06833L9.97821 6.06528C9.97452 6.06366 9.97079 6.0618 9.96686 6.06042L9.96033 6.05807C9.9566 6.0567 9.95267 6.05551 9.9487 6.05435L9.94174 6.05249C9.93802 6.05157 9.9343 6.05087 9.93036 6.04996L9.92197 6.04877C9.9187 6.04831 9.91522 6.04785 9.9115 6.04761C9.90823 6.04715 9.90475 6.04715 9.90128 6.04694L9.89456 6.04669H9.18198C9.07294 6.04669 8.98413 6.13504 8.98413 6.24408V10.6701C8.98413 10.7791 9.07294 10.8674 9.18198 10.8674H9.89456C10.0038 10.8674 10.0924 10.7791 10.0924 10.6701V8.04138L12.1231 10.784C12.1371 10.8037 12.1545 10.8198 12.1733 10.8328L12.1754 10.8342C12.1794 10.837 12.1833 10.8396 12.1875 10.8416L12.1933 10.8447C12.1964 10.8463 12.1994 10.8479 12.2026 10.8493C12.2059 10.8507 12.2089 10.8521 12.2124 10.8535L12.2182 10.8556C12.2229 10.8572 12.2273 10.8586 12.2317 10.86L12.2345 10.8607C12.2505 10.8649 12.2677 10.8674 12.2852 10.8674H12.9977C13.107 10.8674 13.1956 10.7791 13.1956 10.6701V6.24408C13.1956 6.13504 13.107 6.04669 12.9977 6.04669Z" fill="#00B900"/>
<path d="M6.37616 9.75919H4.44028V6.24429C4.44028 6.13504 4.35193 6.04645 4.24265 6.04645H3.53012C3.42084 6.04645 3.33228 6.13504 3.33228 6.24429V10.6696C3.33228 10.7229 3.35342 10.771 3.3876 10.8065L3.39038 10.8096L3.39316 10.8123C3.42874 10.8465 3.47665 10.8675 3.52988 10.8675H6.37616C6.48541 10.8675 6.57376 10.7789 6.57376 10.6696V9.95703C6.57376 9.84778 6.48541 9.75919 6.37616 9.75919Z" fill="#00B900"/>
<path d="M16.9323 7.15494C17.0413 7.15494 17.1297 7.06635 17.1297 6.95709V6.24454C17.1297 6.13528 17.0413 6.04669 16.9323 6.04669H14.086C14.0326 6.04669 13.9842 6.06784 13.9484 6.10248L13.9463 6.10458L13.943 6.10806C13.9091 6.1434 13.8882 6.19131 13.8882 6.24432V10.6696C13.8882 10.7228 13.9093 10.7712 13.9435 10.8065L13.9463 10.8096L13.9491 10.8121C13.9846 10.8463 14.0325 10.8674 14.0858 10.8674H16.9323C17.0413 10.8674 17.1297 10.7789 17.1297 10.6696V9.95706C17.1297 9.84778 17.0413 9.75922 16.9323 9.75922H14.9964V9.01108H16.9323C17.0413 9.01108 17.1297 8.92249 17.1297 8.81323V8.10092C17.1297 7.99142 17.0413 7.90283 16.9323 7.90283H14.9964V7.15494H16.9323Z" fill="#00B900"/>
</svg>
